<svg xmlns="http://www.w3.org/2000/svg" height="512" width="512" viewBox="0 0 511.746 511.746">
  <path d="m114.723 4.177c-21.512 5.188-42 15.337-59.25 29.352l18.918 23.284c13.797-11.21 30.175-19.327 47.364-23.471z" fill="#09BC8A" fill-rule="evenodd" stroke="#0D1117" stroke-width="16" stroke-linejoin="round"/>
  <path d="m83.292 284.385 13.357-26.862c-15.857-7.885-30.045-19.436-41.032-33.404l-23.58 18.546c13.718 17.441 31.442 31.868 51.255 41.72z" fill="#09BC8A" fill-rule="evenodd" stroke="#0D1117" stroke-width="16" stroke-linejoin="round"/>
  <path d="m297.3 178.47c4.134-21.504 3.578-44.248-2.051-66.057l-29.048 7.497c4.495 17.416 4.951 35.667 1.638 52.896z" fill="#09BC8A" fill-rule="evenodd" stroke="#0D1117" stroke-width="16" stroke-linejoin="round"/>
  <path d="m240.925 30.691-18.2 23.849c14.124 10.778 25.88 24.795 34 40.536l26.662-13.753c-10.146-19.667-24.829-37.175-42.462-50.632z" fill="#09BC8A" fill-rule="evenodd" stroke="#0D1117" stroke-width="16" stroke-linejoin="round"/>
  <path d="m147.699.018.456 29.997c.612-.009 1.226-.01 1.846-.014 17.421 0 34.215 3.646 49.915 10.838l12.493-27.275c-19.647-9-40.645-13.563-62.403-13.563-.777-.005-1.54.006-2.307.017z" fill="#09BC8A" fill-rule="evenodd" stroke="#0D1117" stroke-width="16" stroke-linejoin="round"/>
  <path d="m14.502 214.418 27.086-12.897c-7.688-16.147-11.587-33.48-11.587-51.59-3.067.007 11.112-.026-30 .071 0 22.536 4.879 44.209 14.501 64.416z" fill="#09BC8A" fill-rule="evenodd" stroke="#0D1117" stroke-width="16" stroke-linejoin="round"/>
  <path d="m55.703 75.776-23.56-18.573c-13.758 17.454-23.604 38.092-28.471 59.684l29.266 6.598c3.888-17.252 11.76-33.749 22.765-47.709z" fill="#09BC8A" fill-rule="evenodd" stroke="#0D1117" stroke-width="16" stroke-linejoin="round"/>
  <path d="m173.527 267.689c-17.02 3.378-35.05 3.025-51.898-1.057l-7.064 29.156c20.939 5.073 43.693 5.727 66.077 1.078l-4.991-24.029 98.586 238.909 54.81-182.698 182.698-54.809-404.372-166.865zm131.427 37.266-35.19 117.302-107.136-259.628 259.628 107.135z" fill="#09BC8A" fill-rule="evenodd" stroke="#0D1117" stroke-width="16" stroke-linejoin="round"/>
</svg>